<svg preserveAspectRatio="none" overflow="visible" style="display: block;" width="18" height="18" viewBox="0 0 18 18" fill="none" xmlns="http://www.w3.org/2000/svg">
<g id="Container">
<path id="Icon" d="M5.5 7.5H2C1.45 7.5 0.979167 7.30417 0.5875 6.9125C0.195833 6.52083 0 6.05 0 5.5V2C0 1.45 0.195833 0.979167 0.5875 0.5875C0.979167 0.195833 1.45 0 2 0H5.5C6.05 0 6.52083 0.195833 6.9125 0.5875C7.30417 0.979167 7.5 1.45 7.5 2V5.5C7.5 6.05 7.30417 6.52083 6.9125 6.9125C6.52083 7.30417 6.05 7.5 5.5 7.5V7.5M2 5.5H5.5V5.5V5.5V2V2V2H2V2V2V5.5V5.5V5.5V5.5M5.5 18H2C1.45 18 0.979167 17.8042 0.5875 17.4125C0.195833 17.0208 0 16.55 0 16V12.5C0 11.95 0.195833 11.4792 0.5875 11.0875C0.979167 10.6958 1.45 10.5 2 10.5H5.5C6.05 10.5 6.52083 10.6958 6.9125 11.0875C7.30417 11.4792 7.5 11.95 7.5 12.5V16C7.5 16.55 7.30417 17.0208 6.9125 17.4125C6.52083 17.8042 6.05 18 5.5 18V18M2 16H5.5V16V16V12.5V12.5V12.5H2V12.5V12.5V16V16V16V16M16 7.5H12.5C11.95 7.5 11.4792 7.30417 11.0875 6.9125C10.6958 6.52083 10.5 6.05 10.5 5.5V2C10.5 1.45 10.6958 0.979167 11.0875 0.5875C11.4792 0.195833 11.95 0 12.5 0H16C16.55 0 17.0208 0.195833 17.4125 0.5875C17.8042 0.979167 18 1.45 18 2V5.5C18 6.05 17.8042 6.52083 17.4125 6.9125C17.0208 7.30417 16.55 7.5 16 7.5V7.5M12.5 5.5H16V5.5V5.5V2V2V2H12.5V2V2V5.5V5.5V5.5V5.5M16 18H12.5C11.95 18 11.4792 17.8042 11.0875 17.4125C10.6958 17.0208 10.5 16.55 10.5 16V12.5C10.5 11.95 10.6958 11.4792 11.0875 11.0875C11.4792 10.6958 11.95 10.5 12.5 10.5H16C16.55 10.5 17.0208 10.6958 17.4125 11.0875C17.8042 11.4792 18 11.95 18 12.5V16C18 16.55 17.8042 17.0208 17.4125 17.4125C17.0208 17.8042 16.55 18 16 18V18M12.5 16H16V16V16V12.5V12.5V12.5H12.5V12.5V12.5V16V16V16V16M5.5 5.5V5.5V5.5V5.5V5.5V5.5V5.5V5.5V5.5V5.5V5.5V5.5V5.5V5.5M5.5 12.5V12.5V12.5V12.5V12.5V12.5V12.5V12.5V12.5V12.5V12.5V12.5V12.5V12.5M12.5 5.5V5.5V5.5V5.5V5.5V5.5V5.5V5.5V5.5V5.5V5.5V5.5V5.5V5.5M12.5 12.5V12.5V12.5V12.5V12.5V12.5V12.5V12.5V12.5V12.5V12.5V12.5V12.5V12.5" fill="#3556D8"/>
</g>
</svg>
